<?xml version="1.0" encoding="iso-8859-1"?>
<!-- Generator: Adobe Illustrator 19.0.0, SVG Export Plug-In . SVG Version: 6.00 Build 0)  -->
<svg version="1.1" id="Capa_1" xmlns="http://www.w3.org/2000/svg" xmlns:xlink="http://www.w3.org/1999/xlink" x="0px" y="0px"
	 viewBox="0 0 512 512" style="enable-background:new 0 0 512 512;width:200px;height:200px" xml:space="preserve">
<g>
	<rect x="185.379" y="397.043" style="fill:#95A5A5;" width="141.241" height="97.103"/>
	<path style="fill:#BDC3C7;" d="M141.241,476.491h229.517c14.626,0,26.483,11.857,26.483,26.483v8.828H114.759v-8.828
		C114.759,488.348,126.615,476.491,141.241,476.491z"/>
	<path style="fill:#3F5C6C;" d="M169.49,0.199H35.31C15.801,0.199,0,15.382,0,43.939V370.56c0,8.695,15.801,23.879,35.31,23.879
		H476.69c19.509,0,35.31-15.183,35.31-23.879V43.939c0-28.557-15.801-43.741-35.31-43.741H169.49z"/>
	<path style="fill:#BDC3C7;" d="M512,336.353v45.639c-0.437,19.077-16.232,34.201-35.31,33.81H35.31
		C16.232,416.193,0.437,401.069,0,381.992v-45.639H512z"/>
	<circle style="fill:#71C285;" cx="97.103" cy="194.008" r="61.793"/>
	<circle style="fill:#E4C05C;" cx="256" cy="194.008" r="61.793"/>
	<circle style="fill:#CC4B4C;" cx="414.897" cy="194.008" r="61.793"/>
	<g>
		<path style="fill:#ECF0F1;" d="M109.586,206.491c-6.991,6.655-17.974,6.655-24.965,0c-3.447-3.447-9.036-3.447-12.483,0
			c-3.447,3.447-3.447,9.036,0,12.483c13.796,13.77,36.136,13.77,49.931,0c2.236-2.229,3.112-5.482,2.297-8.532
			c-0.815-3.05-3.198-5.432-6.248-6.248C115.068,203.379,111.815,204.255,109.586,206.491z"/>
		<path style="fill:#ECF0F1;" d="M76.091,184.474c2.138,0.943,4.573,0.943,6.711,0c1.069-0.449,2.054-1.076,2.914-1.854
			c1.611-1.693,2.525-3.93,2.56-6.267c0.031-1.159-0.212-2.309-0.707-3.358c-0.807-2.215-2.552-3.96-4.767-4.767
			c-2.132-0.97-4.579-0.97-6.711,0c-1.069,0.449-2.053,1.077-2.91,1.857c-0.8,0.842-1.43,1.83-1.858,2.909
			c-0.452,1.063-0.69,2.204-0.702,3.358c0.016,2.341,0.933,4.585,2.56,6.268C74.039,183.398,75.023,184.025,76.091,184.474z"/>
		<path style="fill:#ECF0F1;" d="M111.401,184.474c2.138,0.943,4.573,0.943,6.711,0c1.069-0.449,2.054-1.076,2.914-1.854
			c1.611-1.693,2.525-3.93,2.56-6.267c0.031-1.159-0.212-2.309-0.707-3.358c-0.807-2.215-2.552-3.96-4.767-4.767
			c-2.132-0.97-4.579-0.97-6.711,0c-1.069,0.449-2.053,1.077-2.91,1.857c-0.8,0.842-1.43,1.83-1.858,2.909
			c-0.452,1.063-0.69,2.204-0.702,3.358c0.016,2.341,0.933,4.585,2.56,6.268C109.349,183.398,110.333,184.025,111.401,184.474z"/>
		<path style="fill:#ECF0F1;" d="M234.987,184.474c2.138,0.943,4.573,0.943,6.711,0c1.069-0.449,2.054-1.076,2.914-1.854
			c1.611-1.693,2.525-3.93,2.56-6.267c0.031-1.159-0.212-2.309-0.707-3.358c-0.807-2.215-2.552-3.96-4.767-4.767
			c-2.132-0.97-4.579-0.97-6.711,0c-1.069,0.449-2.053,1.077-2.91,1.857c-0.8,0.842-1.43,1.83-1.858,2.909
			c-0.452,1.063-0.69,2.204-0.702,3.358c0.016,2.341,0.933,4.585,2.56,6.268C232.936,183.398,233.919,184.025,234.987,184.474z"/>
		<path style="fill:#ECF0F1;" d="M279.923,170.086c-0.859-0.78-1.844-1.409-2.914-1.858c-2.132-0.97-4.579-0.97-6.711,0
			c-1.069,0.449-2.053,1.077-2.91,1.858c-0.8,0.842-1.43,1.83-1.858,2.909c-0.452,1.063-0.69,2.204-0.702,3.358
			c0.016,2.341,0.933,4.585,2.56,6.268c0.858,0.778,1.842,1.405,2.909,1.854c2.138,0.943,4.573,0.943,6.711,0
			c1.069-0.449,2.054-1.076,2.914-1.854c1.611-1.693,2.525-3.931,2.561-6.268c0.031-1.159-0.212-2.309-0.707-3.358
			C281.327,171.928,280.7,170.944,279.923,170.086z"/>
		<path style="fill:#ECF0F1;" d="M439.862,213.163c-13.8-13.759-36.131-13.759-49.931,0c-3.447,3.447-3.447,9.036,0,12.483
			c3.447,3.447,9.036,3.447,12.483,0c6.9-6.879,18.065-6.879,24.965,0c3.447,3.447,9.036,3.447,12.483,0
			C443.309,222.199,443.309,216.611,439.862,213.163L439.862,213.163z"/>
		<path style="fill:#ECF0F1;" d="M393.884,184.474c2.138,0.943,4.573,0.943,6.711,0c1.069-0.449,2.054-1.076,2.914-1.854
			c1.611-1.693,2.525-3.93,2.56-6.267c0.031-1.159-0.212-2.309-0.707-3.358c-0.807-2.215-2.552-3.96-4.767-4.767
			c-2.132-0.97-4.579-0.97-6.711,0c-1.069,0.449-2.053,1.077-2.91,1.857c-0.8,0.842-1.43,1.83-1.858,2.909
			c-0.452,1.063-0.69,2.204-0.702,3.358c0.016,2.341,0.933,4.585,2.56,6.268C391.832,183.398,392.816,184.025,393.884,184.474z"/>
		<path style="fill:#ECF0F1;" d="M429.194,184.474c2.138,0.943,4.573,0.943,6.711,0c1.069-0.449,2.054-1.076,2.914-1.854
			c1.611-1.693,2.525-3.93,2.56-6.267c0.031-1.159-0.212-2.309-0.707-3.358c-0.807-2.215-2.552-3.96-4.767-4.767
			c-2.132-0.97-4.579-0.97-6.711,0c-1.069,0.449-2.053,1.077-2.91,1.857c-0.8,0.842-1.43,1.83-1.858,2.909
			c-0.452,1.063-0.69,2.204-0.702,3.358c0.016,2.341,0.933,4.585,2.56,6.268C427.143,183.398,428.126,184.025,429.194,184.474z"/>
		<path style="fill:#ECF0F1;" d="M273.655,202.836h-35.31c-4.875,0-8.828,3.952-8.828,8.828s3.952,8.828,8.828,8.828h35.31
			c4.875,0,8.828-3.952,8.828-8.828S278.531,202.836,273.655,202.836z"/>
	</g>
</g>
<g>
</g>
<g>
</g>
<g>
</g>
<g>
</g>
<g>
</g>
<g>
</g>
<g>
</g>
<g>
</g>
<g>
</g>
<g>
</g>
<g>
</g>
<g>
</g>
<g>
</g>
<g>
</g>
<g>
</g>
</svg>
