<svg id="Capa_1" enable-background="new 0 0 512.004 512.004" height="20" viewBox="0 0 512.004 512.004" width="20" xmlns="http://www.w3.org/2000/svg"><g><path d="m212.704 137.231c22.279 0 40.405-18.125 40.405-40.404s-18.126-40.405-40.405-40.405-40.404 18.126-40.404 40.405 18.125 40.404 40.404 40.404zm0-65.809c14.009 0 25.405 11.396 25.405 25.405 0 14.008-11.396 25.404-25.405 25.404-14.008 0-25.404-11.396-25.404-25.404s11.396-25.405 25.404-25.405z"/><path d="m197.84 437.005c25.496 0 46.239-20.743 46.239-46.239s-20.743-46.239-46.239-46.239-46.239 20.743-46.239 46.239 20.743 46.239 46.239 46.239zm0-77.478c17.226 0 31.239 14.014 31.239 31.239s-14.014 31.239-31.239 31.239-31.239-14.014-31.239-31.239 14.013-31.239 31.239-31.239z"/><path d="m131.618 131.633c-27.031 0-49.022 21.991-49.022 49.022s21.991 49.022 49.022 49.022 49.022-21.991 49.022-49.022-21.991-49.022-49.022-49.022zm0 83.045c-18.76 0-34.022-15.262-34.022-34.022s15.263-34.022 34.022-34.022 34.022 15.262 34.022 34.022-15.262 34.022-34.022 34.022z"/><path d="m117.578 348.725c27.031 0 49.022-21.991 49.022-49.022s-21.991-49.022-49.022-49.022-49.022 21.991-49.022 49.022 21.991 49.022 49.022 49.022zm0-83.045c18.76 0 34.022 15.262 34.022 34.022s-15.263 34.022-34.022 34.022-34.022-15.262-34.022-34.022 15.262-34.022 34.022-34.022z"/><path d="m166.44 490.454c4.069.749 7.98-1.956 8.725-6.031s-1.956-7.981-6.031-8.725c-28.747-5.249-54.463-19.51-74.368-41.242-57.979-63.299-83.793-131.571-76.726-202.921 15.947-161.023 185.751-241.171 342.349-209.85 21.156 4.231 29.396 21.475 30.021 34.955.619 13.306-5.896 31.005-26.294 37.099-26.355 7.873-47.193 19.364-61.935 34.153-33.788 33.897-36.715 91.09-4.452 129.615 15.931 19.023 26.122 42.091 29.544 66.827-16.984 38.603-34.352 82.319-47.793 122.782-21.595 17.838-48.918 28.647-77.182 30.493-4.134.27-7.266 3.839-6.996 7.973.26 3.967 3.558 7.012 7.478 7.012.164 0 .329-.005.496-.017 24.337-1.589 48.054-9.174 68.674-21.744-4.362 15.196 2.759 31.115 17.081 37.997 15.294 7.35 33.809 1.526 42.155-13.241 14.442-25.553 30.091-56.567 45.252-89.689 1.725-3.766.068-8.217-3.697-9.941-3.768-1.725-8.217-.067-9.941 3.698-14.987 32.743-30.435 63.363-44.672 88.552-4.477 7.921-14.402 11.038-22.6 7.102-7.757-3.728-11.58-12.392-9.09-20.601 19.361-63.866 51.65-141.606 81.229-201.718l40.312 17.256c-9.399 25.614-20.106 52.284-31.031 77.571-1.641 3.803.112 8.216 3.915 9.857 3.809 1.643 8.217-.112 9.858-3.915 20.578-47.754 43.545-107.401 56.948-157.581 4.764-1.711 8.207-5.157 10.032-9.421l6.491-15.164c1.391-3.249 1.698-6.692 1.091-9.93 12.484-7.969 29.958-22.184 39.013-43.338 11.187-26.13 3.753-70.399-1.674-94.461-1.039-4.61-4.255-8.474-8.6-10.334-4.346-1.86-9.36-1.521-13.414.91-21.156 12.685-58.319 37.865-69.504 63.993-9.052 21.145-7.279 43.594-4.43 58.128-2.838 1.841-5.068 4.478-6.429 7.658l-6.491 15.164c-1.84 4.297-1.929 9.151.108 13.761-20.125 32.979-40.105 73.005-56.222 108.123-5.661-19.542-15.271-37.701-28.41-53.391-12.581-15.023-18.96-32.631-18.96-52.336 0-42.524 26.29-71.939 78.14-87.429 23.613-7.054 38.13-27.531 36.985-52.167-.947-20.376-14.321-43.419-42.064-48.968-165.082-33.018-343.348 52.774-360.219 223.079-7.505 75.774 19.61 147.953 80.593 214.531 22.133 24.164 50.742 40.025 82.735 45.866zm238.926-287.359c9.829 4.207 17.333 7.42 27.162 11.627-4.903 18.033-11.545 38.989-19.458 61.388l-38.69-16.562c10.748-21.191 21.325-40.462 30.986-56.453zm45.036-17.404-6.491 15.164c-.525 1.224-1.896 1.612-2.925 1.171l-32.273-13.815c-1.046-.448-1.689-1.714-1.171-2.924l6.491-15.165c.506-1.179 1.844-1.635 2.927-1.17l32.271 13.814c1.04.446 1.68 1.736 1.171 2.925zm-25.51-81.354c3.284-7.672 16.013-28.554 63.163-56.873 12.061 53.667 5.734 77.286 2.45 84.959-7.744 18.092-23.322 30.375-34.144 37.139-.401-.211-.812-.407-1.229-.585l-32.272-13.815h-.001c-.417-.178-.841-.34-1.271-.484-2.574-12.501-4.439-32.251 3.304-50.341z"/></g></svg>