<svg id="_x31__x2C_5_px" enable-background="new 0 0 24 24" height="16" viewBox="0 0 24 24" width="16" xmlns="http://www.w3.org/2000/svg"><path d="m17 22c-2.757 0-5-2.243-5-5s2.243-5 5-5 5 2.243 5 5-2.243 5-5 5zm0-8.5c-1.93 0-3.5 1.57-3.5 3.5s1.57 3.5 3.5 3.5 3.5-1.57 3.5-3.5-1.57-3.5-3.5-3.5z"/><path d="m23.25 24c-.192 0-.384-.073-.53-.22l-3.25-3.25c-.293-.293-.293-.768 0-1.061s.768-.293 1.061 0l3.25 3.25c.293.293.293.768 0 1.061-.147.147-.339.22-.531.22z"/><path d="m10.53 21h-7.78c-1.517 0-2.75-1.233-2.75-2.75v-15.5c0-1.517 1.233-2.75 2.75-2.75h11.5c1.517 0 2.75 1.233 2.75 2.75v7.04c0 .414-.336.75-.75.75s-.75-.336-.75-.75v-7.04c0-.689-.561-1.25-1.25-1.25h-11.5c-.689 0-1.25.561-1.25 1.25v15.5c0 .689.561 1.25 1.25 1.25h7.78c.414 0 .75.336.75.75s-.336.75-.75.75z"/><path d="m13.25 9.5h-9.5c-.414 0-.75-.336-.75-.75s.336-.75.75-.75h9.5c.414 0 .75.336.75.75s-.336.75-.75.75z"/><path d="m9.25 13.5h-5.5c-.414 0-.75-.336-.75-.75s.336-.75.75-.75h5.5c.414 0 .75.336.75.75s-.336.75-.75.75z"/><path d="m8.25 5.5h-4.5c-.414 0-.75-.336-.75-.75s.336-.75.75-.75h4.5c.414 0 .75.336.75.75s-.336.75-.75.75z"/></svg>