<svg id="icons" enable-background="new 0 0 64 64" height="20" viewBox="0 0 64 64" width="20" xmlns="http://www.w3.org/2000/svg"><path d="m6.03 53h-.01c-.552 0-.994.447-.994 1s.452 1 1.005 1c.552 0 1-.447 1-1s-.449-1-1.001-1z"/><path d="m59 35c-.284 0-.569.023-.849.07-.004.001-.007.003-.011.004l-3.14.479v-5.569c0-.003 0-.007 0-.01v-7.967c0-.003 0-.007 0-.01v-7.969c0-.003 0-.007 0-.01v-8.018c0-.019-.01-.034-.011-.052-.006-.112-.022-.224-.065-.329-.049-.115-.119-.219-.204-.307-.005-.005-.006-.012-.011-.017-.093-.093-.203-.167-.326-.218s-.254-.077-.385-.077h-29.994c-.132-.001-.264.025-.389.077-.113.047-.214.117-.302.2-.006.006-.015.008-.021.014l-.001.001c-.001.001-.001.001-.002.002l-3.996 3.976c-.093.093-.167.203-.218.326-.051.122-.077.251-.077.382v.001 8 8 5.021h-6.998v-1c0-.553-.447-1-1-1h-10c-.553 0-1 .447-1 1v27c0 .553.447 1 1 1h10c.553 0 1-.447 1-1v-.861l21.871 2.853c.044.005.087.008.13.008.105 0 .211-.023.313-.058.027-.009.053-.02.079-.03.026-.012.054-.018.08-.031l27-14.537c.002-.001.003-.003.005-.004.008-.004.016-.006.023-.01 1.542-.891 2.499-2.551 2.499-4.33 0-2.757-2.243-5-5-5zm-7.998 1.161v-1.769l1.998-1.998v3.464zm-11.148 1.697c-.273-1.171-.953-2.184-1.903-2.88h11.052v1.487zm-13.149-9.587c-.391-.391-1.023-.391-1.414 0l-2 2c-.369.369-.377.949-.048 1.342l-2.245-.438v-4.197h28.004v6h-18.758l-5.787-1.128c.087-.046.175-.092.248-.165l2-2c.391-.39.391-1.023 0-1.414zm-2.295-21.271h27.168l-1.988 1.979h-27.168zm28.59 22.565-1.998 1.999v-5.15l1.998-1.997zm-32.002-10.586h28.004v6h-28.004zm0-8h28.004v6h-28.004zm32.002 2.631-1.998 1.999v-5.215l1.998-1.988zm0 7.979-1.998 1.997v-5.148l1.998-2zm-43 34.411h-8v-25h8zm50.515-13.412-26.706 14.379-21.809-2.845v-21.122h7.904l15.592 3.04c.005.001.01.001.014.001.003.001.004.003.007.003 1.439.248 2.483 1.491 2.483 2.956 0 1.654-1.346 3-3 3-.104 0-.205-.006-.307-.017-.007-.001-.012.002-.019.001-.007 0-.012-.004-.019-.005l-12.579-.977c-.554-.045-1.031.368-1.074.92-.043.551.369 1.031.92 1.074l12.579.977c.026.002.053.003.078.003h.002c.139.012.277.024.419.024 2.458 0 4.496-1.787 4.912-4.128l18.556-2.825c.004-.001.006-.003.01-.004h.004c.167-.028.341-.043.518-.043 1.654 0 3 1.346 3 3 0 1.063-.569 2.051-1.485 2.588z"/><path d="m47.032 12.979h-.011c-.552 0-.994.447-.994 1s.452 1 1.005 1c.552 0 1-.447 1-1s-.448-1-1-1z"/><path d="m25.291 12.271-2 2c-.391.391-.391 1.023 0 1.414.195.195.451.293.707.293s.512-.098.707-.293l2-2c.391-.391.391-1.023 0-1.414s-1.023-.39-1.414 0z"/><path d="m30.291 12.271-2 2c-.391.391-.391 1.023 0 1.414.195.195.451.293.707.293s.512-.098.707-.293l2-2c.391-.391.391-1.023 0-1.414s-1.023-.39-1.414 0z"/><path d="m35.291 12.271-2 2c-.391.391-.391 1.023 0 1.414.195.195.451.293.707.293s.512-.098.707-.293l2-2c.391-.391.391-1.023 0-1.414s-1.023-.39-1.414 0z"/><path d="m47.032 20.979h-.011c-.552 0-.994.447-.994 1s.452 1 1.005 1c.552 0 1-.447 1-1s-.448-1-1-1z"/><path d="m25.291 20.271-2 2c-.391.391-.391 1.023 0 1.414.195.195.451.293.707.293s.512-.098.707-.293l2-2c.391-.391.391-1.023 0-1.414s-1.023-.39-1.414 0z"/><path d="m30.291 20.271-2 2c-.391.391-.391 1.023 0 1.414.195.195.451.293.707.293s.512-.098.707-.293l2-2c.391-.391.391-1.023 0-1.414s-1.023-.39-1.414 0z"/><path d="m35.291 20.271-2 2c-.391.391-.391 1.023 0 1.414.195.195.451.293.707.293s.512-.098.707-.293l2-2c.391-.391.391-1.023 0-1.414s-1.023-.39-1.414 0z"/><path d="m47.032 30.979c.552 0 1-.447 1-1s-.448-1-1-1h-.011c-.552 0-.994.447-.994 1s.452 1 1.005 1z"/><path d="m28.998 31.979c.256 0 .512-.098.707-.293l2-2c.391-.391.391-1.023 0-1.414s-1.023-.391-1.414 0l-2 2c-.391.391-.391 1.023 0 1.414.195.195.451.293.707.293z"/><path d="m33.998 31.979c.256 0 .512-.098.707-.293l2-2c.391-.391.391-1.023 0-1.414s-1.023-.391-1.414 0l-2 2c-.391.391-.391 1.023 0 1.414.195.195.451.293.707.293z"/></svg>