<?xml version="1.0"?>
<svg xmlns="http://www.w3.org/2000/svg" viewBox="0 0 512 512" width="20" height="20"><g id="outline"><path d="M488,368h-1L471.93,254.942A8,8,0,0,0,464,248H439.99a63.374,63.374,0,0,0-18.735-45.254A64.172,64.172,0,0,0,387.768,185.1a64.008,64.008,0,0,0-61.757-41.058,96.017,96.017,0,0,0-156.022,0A64.008,64.008,0,0,0,108.232,185.1a64.171,64.171,0,0,0-33.486,17.648A63.374,63.374,0,0,0,56.01,248H48a8,8,0,0,0-7.93,6.942L25,368H24a8,8,0,0,0-8,8v32a8,8,0,0,0,8,8H488a8,8,0,0,0,8-8V376A8,8,0,0,0,488,368ZM86.06,214.059a47.437,47.437,0,0,1,29-13.8,8,8,0,0,0,6.862-5.723,48,48,0,0,1,51.241-34.25,7.988,7.988,0,0,0,7.575-3.615,80.019,80.019,0,0,1,134.524,0,7.988,7.988,0,0,0,7.575,3.615,48,48,0,0,1,51.241,34.25,8,8,0,0,0,6.862,5.723A48.012,48.012,0,0,1,424.012,248H71.988A47.547,47.547,0,0,1,86.06,214.059ZM55,264H457l13.866,104H41.138ZM480,400H32V384H480Z"/><path d="M447.93,314.942a8,8,0,0,0-15.86,2.116l3.734,28a8,8,0,1,0,15.859-2.116Z"/><path d="M437.323,295.93a8,8,0,0,0,6.873-8.987l-1.066-8a8,8,0,1,0-15.859,2.114l1.066,8a7.992,7.992,0,0,0,8.986,6.873Z"/><path d="M288.539,280a25.975,25.975,0,0,0-23.557,15.272H245.923a25.813,25.813,0,0,0-49.375,10.546A25.692,25.692,0,0,0,198.636,316a25.827,25.827,0,0,0,23.73,36A25.961,25.961,0,0,0,242.9,341.818H268a25.813,25.813,0,0,0,46.355-15.636A25.681,25.681,0,0,0,312.269,316a25.827,25.827,0,0,0-23.73-36Zm8.058,40.577A9.815,9.815,0,0,1,288.539,336a9.876,9.876,0,0,1-8.876-5.615,8,8,0,0,0-7.225-4.567H238.467a8,8,0,0,0-7.227,4.568,9.819,9.819,0,0,1-18.692-4.2,9.739,9.739,0,0,1,1.76-5.6,8,8,0,0,0,0-9.156A9.814,9.814,0,0,1,222.366,296a9.853,9.853,0,0,1,9.715,8.4A8,8,0,0,0,240,311.272h30.9a8,8,0,0,0,7.919-6.867,9.818,9.818,0,0,1,19.533,1.413,9.749,9.749,0,0,1-1.76,5.605A8,8,0,0,0,296.6,320.577Z"/><path d="M176,192a24.028,24.028,0,0,0-24,24,8,8,0,0,0,16,0,8,8,0,0,1,16,0,8,8,0,0,0,16,0A24.028,24.028,0,0,0,176,192Z"/><path d="M352,200a24.028,24.028,0,0,0-24,24,8,8,0,0,0,16,0,8,8,0,0,1,16,0,8,8,0,0,0,16,0A24.028,24.028,0,0,0,352,200Z"/><path d="M255.882,152a8,8,0,1,0-.238-16,24.026,24.026,0,0,0-23.639,24.355,8,8,0,0,0,8,7.881h.121A8,8,0,0,0,248,160.12,8.009,8.009,0,0,1,255.882,152Z"/><circle cx="256" cy="224" r="8"/><circle cx="296" cy="176" r="8"/></g></svg>
