<svg height="20" viewBox="-2 0 512 512.00005" width="20" xmlns="http://www.w3.org/2000/svg"><path d="m314.652344 294.195312c13.75-17.015624 12.722656-42.089843-3.085938-57.902343-16.910156-16.910157-44.421875-16.914063-61.332031-.007813l-14.496094 14.496094c-5.320312 5.324219-13.984375 5.320312-19.3125-.003906-2.582031-2.582032-4-6.011719-4.003906-9.660156 0-3.644532 1.421875-7.074219 3.996094-9.652344l24.527343-24.527344c5.804688-5.800781 5.804688-15.207031 0-21.007812-5.800781-5.804688-15.207031-5.804688-21.007812 0l-6.773438 6.773437-6.464843-6.464844c-5.800781-5.800781-15.207031-5.800781-21.011719 0-5.800781 5.804688-5.800781 15.207031 0 21.011719l6.640625 6.636719c-6.230469 7.691406-9.617187 17.203125-9.617187 27.238281 0 11.582031 4.515624 22.472656 12.707031 30.664062 8.453125 8.457032 19.5625 12.683594 30.667969 12.683594 11.105468 0 22.210937-4.226562 30.660156-12.675781l14.496094-14.496094c5.324218-5.324219 13.988281-5.320312 19.316406.003907 5.324218 5.328124 5.328125 13.992187.003906 19.3125l-28.445312 28.445312c-5.804688 5.800781-5.804688 15.207031 0 21.007812 2.898437 2.902344 6.699218 4.355469 10.503906 4.351563 3.800781 0 7.605468-1.449219 10.503906-4.351563l10.695312-10.691406 6.464844 6.460938c2.902344 2.902344 6.703125 4.351562 10.503906 4.351562 3.804688 0 7.605469-1.449218 10.507813-4.351562 5.800781-5.800782 5.800781-15.207032 0-21.007813zm0 0"/><path d="m350.742188 94.394531c-8.417969 8.417969-13.054688 19.609375-13.054688 31.511719 0 11.90625 4.636719 23.097656 13.054688 31.515625 8.6875 8.6875 20.101562 13.03125 31.515624 13.03125 11.414063 0 22.824219-4.34375 31.511719-13.03125 17.378907-17.378906 17.378907-45.652344 0-63.03125-17.375-17.375-45.652343-17.371094-63.027343.003906zm42.019531 42.019531c-5.792969 5.792969-15.21875 5.789063-21.011719 0-5.789062-5.792968-5.789062-15.21875 0-21.011718 5.792969-5.789063 15.21875-5.789063 21.011719 0 5.792969 5.792968 5.792969 15.21875 0 21.011718zm0 0"/><path d="m500.917969 20.582031c-.234375-7.855469-6.542969-14.167969-14.394531-14.40625l-202.539063-6.1679685c-4.132813-.1171875-8.109375 1.4648435-11.007813 4.3945315l-250 252.574218c-30.636718 30.953126-30.636718 81.316407 0 112.265626l118.214844 119.429687c14.886719 15.042969 34.695313 23.328125 55.773438 23.328125 21.074218 0 40.882812-8.285156 55.773437-23.328125l249.996094-252.574219c2.863281-2.890625 4.414063-6.828125 4.289063-10.894531zm-269.296875 447.1875c-9.265625 9.363281-21.574219 14.519531-34.65625 14.519531-13.085938 0-25.394532-5.15625-34.660156-14.519531l-118.210938-119.429687c-19.230469-19.425782-19.230469-51.035156 0-70.460938l245.449219-247.976562 182.09375 5.546875 5.5 184.277343zm0 0"/></svg>