<?xml version="1.0"?>
<svg xmlns="http://www.w3.org/2000/svg" width="16" height="16" viewBox="0 0 128 128"><g><path d="M86.076,40.735H69.6V22.77a5.927,5.927,0,0,0-11-3.071,1.708,1.708,0,0,0-.082.152L49.391,38.967a15.343,15.343,0,0,0-1.45,5.838H35.632a1.75,1.75,0,0,0-1.75,1.75V73.673a1.75,1.75,0,0,0,1.75,1.75H48.957a8.041,8.041,0,0,0,6.982,4.068H81.205a8.082,8.082,0,0,0,7.86-6.351l4.871-22.676a8.04,8.04,0,0,0-7.86-9.729ZM37.382,71.923V48.305H47.9V71.451c0,.159.015.315.024.472ZM90.514,49.729,85.643,72.405a4.563,4.563,0,0,1-4.438,3.586H55.939a4.546,4.546,0,0,1-4.54-4.54V45.55a11.847,11.847,0,0,1,1.15-5.074l9.092-19.028A2.427,2.427,0,0,1,66.1,22.77V42.485a1.75,1.75,0,0,0,1.75,1.75H86.076a4.541,4.541,0,0,1,4.438,5.494Z"/><path d="M108.618,4.557H19.382A14.841,14.841,0,0,0,4.557,19.382V80.951A14.842,14.842,0,0,0,19.382,95.777h17.1v25.916a1.75,1.75,0,0,0,3.123,1.085l21.323-27h47.689a14.842,14.842,0,0,0,14.825-14.826V19.382A14.841,14.841,0,0,0,108.618,4.557Zm11.325,76.394a11.338,11.338,0,0,1-11.325,11.326H60.082a1.751,1.751,0,0,0-1.374.665L39.983,116.653V94.027a1.751,1.751,0,0,0-1.75-1.75H19.382A11.338,11.338,0,0,1,8.057,80.951V19.382A11.337,11.337,0,0,1,19.382,8.057h89.236a11.337,11.337,0,0,1,11.325,11.325Z"/></g></svg>
