<?xml version="1.0"?>
<svg xmlns="http://www.w3.org/2000/svg" viewBox="0 0 512 512" width="20" height="20"><g id="outline"><path d="M392,200.679V184a16.019,16.019,0,0,0,16-16V136a16.019,16.019,0,0,0-16-16H264a16.019,16.019,0,0,0-16,16v32a16.019,16.019,0,0,0,16,16v16.679A48.071,48.071,0,0,0,224,248V448a48.055,48.055,0,0,0,48,48H384a48.055,48.055,0,0,0,48-48V248A48.071,48.071,0,0,0,392,200.679ZM264,136H392l.01,32H264Zm112,48v16H280V184ZM272,216H384a32.036,32.036,0,0,1,32,32H240A32.036,32.036,0,0,1,272,216Zm-32,48H416V432H240ZM384,480H272a32.036,32.036,0,0,1-32-32H416A32.036,32.036,0,0,1,384,480Z"/><path d="M176,369.376V128a16.019,16.019,0,0,0-16-16V96a8,8,0,0,0-2.343-5.657L144,76.686V24a8,8,0,0,0-16,0V76.686L114.343,90.343A8,8,0,0,0,112,96v16a16.019,16.019,0,0,0-16,16V369.376A24,24,0,0,0,104,416h8v33.376A24,24,0,0,0,120,496h32a24,24,0,0,0,8-46.624V416h8a24,24,0,0,0,8-46.624ZM112,352h48v16H112ZM128,99.313l8-8,8,8V112H128ZM160,128v32h-8a8,8,0,0,0,0,16h8v16h-8a8,8,0,0,0,0,16h8v16h-8a8,8,0,0,0,0,16h8v16h-8a8,8,0,0,0,0,16h8v16h-8a8,8,0,0,0,0,16h8v32H112V128Zm-8,352H120a8,8,0,0,1,0-16h32a8,8,0,0,1,0,16Zm-8-32H128V416h16Zm24-48H104a8,8,0,0,1,0-16h64a8,8,0,0,1,0,16Z"/><path d="M304,328a24,24,0,1,0-24,24A24.028,24.028,0,0,0,304,328Zm-32,0a8,8,0,1,1,8,8A8.009,8.009,0,0,1,272,328Z"/><path d="M328,328a24,24,0,1,0-24-24A24.028,24.028,0,0,0,328,328Zm0-32a8,8,0,1,1-8,8A8.009,8.009,0,0,1,328,296Z"/><path d="M376,304a24,24,0,1,0,24,24A24.028,24.028,0,0,0,376,304Zm0,32a8,8,0,1,1,8-8A8.009,8.009,0,0,1,376,336Z"/><path d="M358.777,359.247a32,32,0,0,0-61.554,0C286.361,365.209,280,374.247,280,384c0,17.944,21.084,32,48,32s48-14.056,48-32C376,374.247,369.639,365.209,358.777,359.247ZM328,400c-18.314,0-32-8.447-32-16,0-4.253,4.4-8.847,11.478-11.99a8,8,0,0,0,4.678-6.22,16,16,0,0,1,31.688,0,8,8,0,0,0,4.678,6.22C355.6,375.153,360,379.747,360,384,360,391.553,346.314,400,328,400Z"/></g></svg>
