<?xml version="1.0"?>
<svg xmlns="http://www.w3.org/2000/svg" viewBox="0 0 512 512" width="20" height="20"><g id="outline"><path d="M485.657,434.343l-23.685-23.685-30.635-38.292-19.361-77.447a7.98,7.98,0,0,0,3.975-6.035l8-72a8.007,8.007,0,0,0-.406-3.544l-15.571-44.164a69.369,69.369,0,0,0-11.628-37.11L384,113.512V101.228l7.251-21.753,10.6-15.9A22.928,22.928,0,0,0,382.774,27.93H370.422l-10.8-7.2a28.164,28.164,0,0,0-42.342,32.34L320,61.227v30.7a16.019,16.019,0,0,0,16,16,8,8,0,0,0-7.155,11.578l5.826,11.653-20.913,28.8a35.25,35.25,0,0,0-6.313,15.407,8.008,8.008,0,0,0-.5.849l-17.06,34.12-37.249,22.349L229.47,240.41A8,8,0,0,0,224,248v16a8,8,0,0,0,2.343,5.657l.594.593-99.8,57.029L108.9,321.2l-22.5-30a8,8,0,0,0-13.056.362L58.522,313.8l-14.1,7.05a8,8,0,0,0-3.577,3.577l-6.808,13.615-13.615,6.808a8,8,0,0,0-3.577,10.733l16,32a8,8,0,0,0,9.095,4.183l29.74-7.435L89.3,390.2l2.967,11.866a39.808,39.808,0,0,0,3.142,8.373L75.2,425.6a8,8,0,0,0-2.628,9.371l16,40a7.994,7.994,0,0,0,9.958,4.619l24-8a8,8,0,0,0,5.059-10.12l-6.436-19.31,7.631-7.63L136,437.416v16.695l-15.155,30.311A8,8,0,0,0,128,496h32a8,8,0,0,0,6.656-3.562l16-24A8.005,8.005,0,0,0,184,464V437.766L216,427.1v19.359l-15.428,38.57A8,8,0,0,0,208,496h32a8,8,0,0,0,7.428-5.029l16-40A8,8,0,0,0,264,448v-6.7l11.388,6.752-1.769,3.015-15.276,15.276A8,8,0,0,0,256,472v16a8,8,0,0,0,8,8h64a8,8,0,0,0,8-8V363.313l22.5-22.5,17.907,53.72a8,8,0,0,0,1.189,2.27L424,458.666V480a8,8,0,0,0,8,8h32a8,8,0,0,0,7.428-5.029l16-40A8,8,0,0,0,485.657,434.343ZM390.208,166.908l17.639,50.027-7.118,64.056-7.979,1.183-8.3-6.779,4.668-12.874a8.017,8.017,0,0,0,.461-2.191l2.4-35.795a8,8,0,0,0-.491-3.344l-18.067-48.177a8.931,8.931,0,1,1,16.784-6.106ZM337.253,34.043a12.134,12.134,0,0,1,13.5,0l12.814,8.543A8,8,0,0,0,368,43.93h14.774a6.928,6.928,0,0,1,5.765,10.77l-8.82,13.23h-6.775l-5.789-11.578A8,8,0,0,0,360,51.93H333.766l-1.306-3.919A12.191,12.191,0,0,1,337.253,34.043ZM344,91.93h-8v-24h19.056l5.789,11.578A8,8,0,0,0,368,83.93h4.9L368.411,97.4A8.006,8.006,0,0,0,368,99.93v8H352v-8A8,8,0,0,0,344,91.93Zm-17.294,77.433,23.768-32.733a8,8,0,0,0,.681-8.278l-2.211-4.422h22.77l11.311,17c.931,1.4,1.784,2.837,2.574,4.3a24.942,24.942,0,0,0-27.157,33.4L375.9,225.19,374.373,248H344V208a8,8,0,0,0-4.422-7.155l-5.9-2.952a19.25,19.25,0,0,1-6.968-28.53ZM240,253.766l18.53-6.176a8.075,8.075,0,0,0,1.586-.73l40-24a8.006,8.006,0,0,0,3.039-3.282l9.725-19.449A35.04,35.04,0,0,0,326.518,212.2l1.482.741v.389l-21.054,28.072-37.917,15.167a7.991,7.991,0,0,0-1.467.772L249.02,269.706,240,260.687Zm2.343,31.891a8,8,0,0,0,10.095,1l23.307-15.538,39.226-15.69A8,8,0,0,0,318.4,252.8L328,240v13.837L298.347,304.67a39.962,39.962,0,0,0-12.235-5.388l-12.172-3.043a8,8,0,0,0-9.529,10.291l.844,2.534a28.416,28.416,0,0,1-3.773,25.539,86.915,86.915,0,0,0-33.109-6.6H213.6a87.128,87.128,0,0,0-12.269.872l-32.232,4.6a70.261,70.261,0,0,1-20.385-.1l89.953-51.4ZM292.172,356.8a57.45,57.45,0,0,0-9.6-9.786c-2.2-1.756-4.48-3.386-6.825-4.912a44.2,44.2,0,0,0,6.884-27.193,24.292,24.292,0,0,1,9.542,41.891ZM70.06,368.239l-25.774,6.444-9.553-19.105,8.845-4.423a8,8,0,0,0,3.577-3.577l6.808-13.615,13.615-6.808a7.994,7.994,0,0,0,3.078-2.717l9.728-14.592L97.6,332.8a8,8,0,0,0,3.87,2.79l14.064,4.687-22.8,34.2-18.2-6.068A7.992,7.992,0,0,0,70.06,368.239Zm30.566,93.786-10.921-27.3,15.662-11.747a39.937,39.937,0,0,0,7.407,4.937l-6.431,6.431a8,8,0,0,0-1.932,8.187l5.47,16.41ZM234.583,480H219.816l11.612-29.029A8,8,0,0,0,232,448V417.3l2.939-8.818L248,424.807v21.652ZM272,475.313l13.657-13.656a8,8,0,0,0,1.191-1.531L293.994,480H272ZM311,480l-12.48-34.707a8,8,0,0,0-3.449-4.175l-25.733-15.256L238.247,387a8,8,0,0,0-13.836,2.468l-6.736,20.206L173.47,424.41A8,8,0,0,0,168,432v29.578L155.719,480H140.944l10.211-20.422A7.994,7.994,0,0,0,152,456V432a8,8,0,0,0-5.029-7.428l-24.808-9.923a24.061,24.061,0,0,1-14.37-16.462l-3.173-12.694,26.647-39.972.734.245a86.467,86.467,0,0,0,39.358,3.549l32.232-4.6A70.831,70.831,0,0,1,213.6,344h14.776a71.018,71.018,0,0,1,44.2,15.506A40.9,40.9,0,0,1,288,391.6V408a8,8,0,0,0,2.343,5.657l22.115,22.114L318.776,480Zm11.346-125.657A8,8,0,0,0,320,360v60.686l-16-16V391.6a57.141,57.141,0,0,0-3.873-20.693l.39-.293a40.5,40.5,0,0,0,15.336-40.14,40.042,40.042,0,0,0-5.81-14.1L340.6,264h30.971l-4.087,11.273a8,8,0,0,0,2.459,8.921L382.2,294.212c-.824.991-1.678,1.957-2.592,2.871Zm48.81-26.182L390.918,308.4a58.328,58.328,0,0,0,6.128-7.229l19.193,76.773A7.978,7.978,0,0,0,417.753,381l28.525,35.657-15.017,25.028-40.082-53.444ZM458.583,472H440V458.216L457.588,428.9l13.025,13.025Z"/><circle cx="72" cy="343" r="7"/></g></svg>
